<svg version="1.1" preserveAspectRatio="none" xmlns="http://www.w3.org/2000/svg" width="500" height="500" viewBox="0 0 500 500"><rect width="100%" height="100%" fill="#F5E7E0" fill-opacity="1"/><svg viewBox="131.492 581.2156 353.8596 295.0522" width="333" height="277.65922586246074" x="83.5px" y="111.1704px" xmlns="http://www.w3.org/2000/svg" xmlns:xlink="http://www.w3.org/1999/xlink" preserveAspectRatio="none"><defs></defs><style>.companyName {fill:#C66358;fill-opacity:1;}.icon1 {fill:#C66358;fill-opacity:1;}.icon2 {fill:#E3BBA7;fill-opacity:1;}.icon3 {fill:#985A55;fill-opacity:1;}.icon3-str {stroke:#985A55;stroke-opacity:1;}.text {fill:#C66358;fill-opacity:1;}</style><g opacity="1" transform="rotate(0 219.9569 581.2156)">
<svg width="176.9298" height="105.0522" x="219.9569" y="581.2156" version="1.1" preserveAspectRatio="none" viewBox="20 52.499996185302734 160 95">
  <g transform="matrix(1 0 0 1 0 0)" ><g><path d="M115.5 52.5l-95.5 95h38.6l38.5-38.3c.1 0 18.4-56.7 18.4-56.7z" data-color="1" class="icon1"></path><path d="M154.1 52.5l-57 56.7-12.4 38.3h25l20.2-20.2c.1 0 24.2-74.8 24.2-74.8z" data-color="2" class="icon2"></path><path d="M58.6 147.5h26.1l12.4-38.3c.1 0-38.5 38.3-38.5 38.3z" data-color="3" class="icon3"></path><path d="M158.7 98.4L130 127.3l-20.2 20.2H131l17.6-17.7 10.1-31.4z" data-color="1" class="icon1"></path><path d="M148.7 129.8l-5.7 17.7h21.3L180 98.4l-31.3 31.4z" data-color="2" class="icon2"></path><path d="M131 147.5h12l5.7-17.7-17.7 17.7z" data-color="3" class="icon3"></path></g></g>
</svg>
</g><g opacity="1" transform="rotate(0 216.7927 850.2678)">
<svg width="183.2581" height="26" x="216.7927" y="850.2678" version="1.1" preserveAspectRatio="none" viewBox="1.04 -26.8 191.68 27.2">
  <g transform="matrix(1 0 0 1 0 0)" class="text"><path id="id-6izo4zJp8" d="M21.96 0L19.16-7.32L7.20-7.32L4.40 0L1.04 0L11.32-26.40L15.12-26.40L25.36 0L21.96 0ZM8.36-10.32L18-10.32L14.44-19.68L13.20-23.36L13.12-23.36L11.96-19.80L8.36-10.32Z M35.92-26.40L35.92 0L32.72 0L32.72-26.40L35.92-26.40Z M63.28 0L56.08-10.96L49.76-10.96L49.76 0L46.56 0L46.56-26.40L56.56-26.40Q60.60-26.40 63.04-24.32Q65.48-22.24 65.48-18.68L65.48-18.68Q65.48-15.88 63.92-13.96Q62.36-12.04 59.64-11.32L59.64-11.32L67.08 0L63.28 0ZM49.76-23.40L49.76-13.96L56.52-13.96Q62.12-13.96 62.12-18.68L62.12-18.68Q62.12-23.40 56.52-23.40L56.52-23.40L49.76-23.40Z M78.36-3L93.48-3L93.48 0L75.16 0L75.16-26.40L78.36-26.40L78.36-3Z M104.28-26.40L104.28 0L101.08 0L101.08-26.40L104.28-26.40Z M135.64-26.40L135.64 0L131.68 0L120.64-17.68L117.84-22.88L117.80-22.88L117.96-18.64L117.96 0L114.92 0L114.92-26.40L118.88-26.40L129.88-8.80L132.72-3.52L132.76-3.52L132.60-7.76L132.60-26.40L135.64-26.40Z M149.48-3L165.40-3L165.40 0L146.28 0L146.28-26.40L164.80-26.40L164.80-23.40L149.48-23.40L149.48-14.88L161.40-14.88L161.40-11.88L149.48-11.88L149.48-3Z M182.28-26.80Q189.36-26.80 192.48-21.20L192.48-21.20L189.72-18.96Q188.52-21.60 186.86-22.70Q185.20-23.80 182.32-23.80L182.32-23.80Q179.28-23.80 177.54-22.54Q175.80-21.28 175.80-19.32L175.80-19.32Q175.80-18.04 176.48-17.20Q177.16-16.36 178.74-15.74Q180.32-15.12 183.12-14.64L183.12-14.64Q188.36-13.76 190.54-12Q192.72-10.24 192.72-7.12L192.72-7.12Q192.72-4.88 191.46-3.18Q190.20-1.48 187.88-0.54Q185.56 0.40 182.52 0.40L182.52 0.40Q178.52 0.40 175.70-1.16Q172.88-2.72 171.40-5.32L171.40-5.32L174.16-7.56Q175.24-5.20 177.34-3.90Q179.44-2.60 182.60-2.60L182.60-2.60Q185.72-2.60 187.56-3.74Q189.40-4.88 189.40-6.96L189.40-6.96Q189.40-8.72 187.80-9.76Q186.20-10.80 182.12-11.52L182.12-11.52Q176.84-12.44 174.64-14.16Q172.44-15.88 172.44-18.96L172.44-18.96Q172.44-21.08 173.64-22.88Q174.84-24.68 177.08-25.74Q179.32-26.80 182.28-26.80L182.28-26.80Z"/></g>
</svg>
</g><g opacity="1" transform="rotate(0 131.492 726.2678)">
<svg width="353.8596" height="100" x="131.492" y="726.2678" version="1.1" preserveAspectRatio="none" viewBox="1.2 -22.4 80.67999999999999 22.8">
  <g transform="matrix(1 0 0 1 0 0)" class="companyName"><path id="id-D6z1nYkh3" d="M30.16-22.40L30.16-21.60L28.16-21.60L28.16-0.80L30.16-0.80L30.16 0L20.16 0L20.16-0.80L22.16-0.80L22.16-20.12L14.24 0.40L13.32 0.40L4.44-20.68L4.44-0.80L7.64-0.80L7.64 0L1.24 0L1.24-0.80L3.64-0.80L3.64-21.60L1.20-21.60L1.20-22.40L10.12-22.40L16.36-7.40L22.16-22.40L30.16-22.40Z M54.84-0.80L56.56-0.80L56.56 0L46.16 0L46.16-0.80L47.96-0.80L42.64-10.52L40.96-8.40L40.96-0.80L42.96-0.80L42.96 0L32.96 0L32.96-0.80L34.96-0.80L34.96-21.60L32.96-21.60L32.96-22.40L42.96-22.40L42.96-21.60L40.96-21.60L40.96-9.80L50.24-21.60L46.56-21.60L46.56-22.40L54.72-22.40L54.72-21.60L51.32-21.60L46.60-15.60L54.84-0.80Z M66.16-21.60L66.16-21.60L66.16-11.28Q70.16-11.28 71.52-12.44Q72.88-13.60 72.88-16.32Q72.88-19.04 71.48-20.32Q70.08-21.60 66.16-21.60ZM81.88-0.40L81.88 0.40L80.12 0.40Q75.12 0.40 73.16-1.76L73.16-1.76Q71.60-3.44 71.04-6.20L71.04-6.20Q70.80-7.36 70.52-8.32L70.52-8.32Q69.88-10.48 67.92-10.48L67.92-10.48L66.16-10.48L66.16-0.80L68.16-0.80L68.16 0L58.16 0L58.16-0.80L60.16-0.80L60.16-21.60L58.16-21.60L58.16-22.40L68.68-22.40Q78.88-22.40 78.88-16.44L78.88-16.44Q78.88-14.08 77.16-12.60Q75.44-11.12 72.76-11.12L72.76-11.12L72.76-10.84Q76.76-10.84 78.32-5.56L78.32-5.56Q79.12-2.76 79.94-1.58Q80.76-0.40 81.88-0.40L81.88-0.40Z"/></g>
</svg>
</g></svg></svg>